<svg width="642" height="482" xmlns="http://www.w3.org/2000/svg">
 <!-- Created with Method Draw - http://github.com/duopixel/Method-Draw/ -->

 <g>
  <title>background</title>
  <rect fill="#fff" id="canvas_background" height="484" width="644" y="-1" x="-1"/>
  <g display="none" overflow="visible" y="0" x="0" height="100%" width="100%" id="canvasGrid">
   <rect fill="url(#gridpattern)" stroke-width="0" y="2" x="2" height="480" width="640"/>
  </g>
 </g>
 <g>
  <title>Layer 1</title>
  <g stroke="null" id="svg_21">
   <g stroke="null" id="svg_8">
    <path stroke="null" id="svg_4" clip-rule="evenodd" d="m149.033608,33.284611c5.360549,-3.695646 11.960577,-3.695646 17.313232,0c26.486955,18.264835 106.192559,73.243639 132.687408,91.508474c5.360549,3.685947 8.660563,10.514648 8.660563,17.905941c0,36.529671 0,146.477578 0,183.007249c0,7.391293 -3.300014,14.219994 -8.660563,17.91564c-26.486955,18.264835 -106.192559,73.243639 -132.687408,91.508474c-5.360549,3.695646 -11.960577,3.695646 -17.313232,0c-26.486955,-18.264835 -106.192559,-73.243639 -132.687408,-91.508474c-5.352654,-3.695646 -8.652669,-10.514648 -8.652669,-17.905941c0,-36.529671 0,-146.477578 0,-183.007249c0,-7.391293 3.300014,-14.219994 8.660563,-17.91564c26.47906,-18.264835 106.200453,-73.243639 132.679514,-91.508474z" fill-rule="evenodd" fill="#283593"/>
    <path stroke="null" id="svg_5" clip-rule="evenodd" d="m10.093541,335.124837c-2.100009,-3.45315 -2.40001,-6.731702 -2.40001,-11.145139c0,-36.316274 0,-145.63369 0,-181.959664c0,-7.352493 3.292119,-14.142395 8.636879,-17.808942c26.392218,-18.158137 105.829399,-72.816845 132.221617,-90.984682c5.34476,-3.676247 12.584264,-3.598648 17.929024,0.077599c26.392218,18.158137 105.560977,72.351252 131.953195,90.509389c2.131588,1.474379 3.757911,3.249453 5.210549,5.587119l-293.551253,205.724319z" fill-rule="evenodd" fill="#5c6bc0"/>
    <path stroke="null" id="svg_6" clip-rule="evenodd" d="m157.694171,98.409467c61.002892,0 110.526788,60.847218 110.526788,135.798033s-49.523896,135.798033 -110.526788,135.798033s-110.526788,-60.847218 -110.526788,-135.798033s49.523896,-135.798033 110.526788,-135.798033zm0,67.899016c30.497499,0 55.263394,30.418759 55.263394,67.899016c0,37.470557 -24.765895,67.899016 -55.263394,67.899016s-55.263394,-30.428459 -55.263394,-67.899016c0,-37.480257 24.758,-67.899016 55.263394,-67.899016z" fill-rule="evenodd" fill="#fff"/>
    <path stroke="null" id="svg_7" clip-rule="evenodd" d="m303.629005,129.497517c4.073702,4.685032 3.994754,11.74653 3.994754,17.304549c0,36.810967 -0.252633,141.51125 0.071053,178.322216c0.031579,3.841144 -1.002636,7.885986 -2.550011,10.931742l-150.663801,-101.848524l149.148005,-104.709983z" fill-rule="evenodd" fill="#3949ab"/>
   </g>
   <g stroke="null" id="svg_18">
    <path stroke="null" id="svg_12" clip-rule="evenodd" d="m465.166836,32.338471c5.348161,-3.770582 11.932936,-3.770582 17.273221,0c26.425744,18.635185 105.947148,74.728773 132.380768,93.363958c5.348161,3.760685 8.640549,10.727849 8.640549,18.269013c0,37.27037 0,149.44765 0,186.71802c0,7.541163 -3.292388,14.508328 -8.640549,18.278909c-26.425744,18.635185 -105.947148,74.728773 -132.380768,93.363958c-5.348161,3.770582 -11.932936,3.770582 -17.273221,0c-26.425744,-18.635185 -105.947148,-74.728773 -132.380768,-93.363958c-5.340284,-3.770582 -8.632672,-10.727849 -8.632672,-18.269013c0,-37.27037 0,-149.44765 0,-186.71802c0,-7.541163 3.292388,-14.508328 8.640549,-18.278909c26.417867,-18.635185 105.955024,-74.728773 132.372891,-93.363958z" fill-rule="evenodd" fill="#00549d"/>
    <path stroke="null" id="svg_13" clip-rule="evenodd" d="m326.547859,340.299002c-2.095156,-3.523168 -2.394464,-6.868199 -2.394464,-11.371124c0,-37.052646 0,-148.586651 0,-185.649194c0,-7.501577 3.284511,-14.429155 8.616919,-18.170047c26.331226,-18.526323 105.584827,-74.293326 131.916053,-92.829545c5.332408,-3.750789 12.555182,-3.671616 17.88759,0.079172c26.331226,18.526323 105.317026,73.818292 131.648251,92.344615c2.126662,1.504274 3.749226,3.315341 5.198507,5.700407l-292.872856,209.895716z" fill-rule="evenodd" fill="#0086d4"/>
    <path stroke="null" id="svg_14" clip-rule="evenodd" d="m473.807385,98.78384c60.861914,0 110.27136,62.080995 110.27136,138.55156s-49.409446,138.55156 -110.27136,138.55156s-110.27136,-62.080995 -110.27136,-138.55156s49.409446,-138.55156 110.27136,-138.55156zm0,69.27578c30.427019,0 55.13568,31.035549 55.13568,69.27578c0,38.230334 -24.708661,69.27578 -55.13568,69.27578s-55.13568,-31.045446 -55.13568,-69.27578c0,-38.24023 24.700785,-69.27578 55.13568,-69.27578z" fill-rule="evenodd" fill="#fff"/>
    <path stroke="null" id="svg_15" clip-rule="evenodd" d="m619.404963,130.502251c4.064287,4.780029 3.985522,11.98471 3.985522,17.655427c0,37.557369 -0.252049,144.380622 0.070889,181.937991c0.031506,3.91903 -1.000319,8.045887 -2.544118,11.153401l-150.315617,-103.91367l148.803324,-106.833149z" fill-rule="evenodd" fill="#0075c0"/>
    <path stroke="null" id="svg_16" clip-rule="evenodd" d="m528.943065,207.64578l15.753051,0l0,59.37924l-15.753051,0l0,-59.37924zm55.13568,0l15.753051,0l0,59.37924l-15.753051,0l0,-59.37924z" fill-rule="evenodd" fill="#fff"/>
    <path stroke="null" id="svg_17" clip-rule="evenodd" d="m513.190013,227.43886l47.259154,0l0,19.79308l-47.259154,0l0,-19.79308zm55.13568,0l47.259154,0l0,19.79308l-47.259154,0l0,-19.79308z" fill-rule="evenodd" fill="#fff"/>
   </g>
  </g>
 </g>
</svg>