<svg xmlns="http://www.w3.org/2000/svg" xmlns:svg="http://www.w3.org/2000/svg" xmlns:xlink="http://www.w3.org/1999/xlink" style="overflow:visible;enable-background:new 0 0 192.026 192.026" id="svg3933" width="192.026" height="192.026" version="1.1" viewBox="0 0 192.026 192.026" xml:space="preserve"><metadata id="metadata3941"/><defs id="defs3939"><linearGradient id="linearGradient4558"><stop style="stop-color:#237f4c;stop-opacity:1" id="stop4560" offset="0"/><stop style="stop-color:#1e6c41;stop-opacity:1" id="stop4562" offset="1"/></linearGradient><radialGradient id="radialGradient4564" cx="24.183" cy="95.734" r="52.188" fx="24.183" fy="95.734" gradientTransform="matrix(1.2947718,0,0,2.4873889,-26.649448,-142.39425)" gradientUnits="userSpaceOnUse" xlink:href="#linearGradient4558"/></defs><rect style="fill:#fff;fill-opacity:1;stroke:none" id="rect4556" width="171.5" height="134.5" x="13.5" y="28.026" ry="3.375"/><g id="use3985" transform="translate(0,87.031249)"><path id="rect3991" d="m 104.26889,44.255993 29.25267,0 0,15.026711 -29.25267,0 z m 35.25,0 29.25267,0 0,14.995461 -29.25267,0 z m -35.25,-21.78125 29.25267,0 0,15.745461 -29.25267,0 z m 35.25,0 29.25267,0 0,15.745461 -29.25267,0 z m -35.25,-21.749999 29.25267,0 0,15.745461 -29.25267,0 z m 35.25,0 29.25267,0 0,15.745461 -29.25267,0 z m -35.25,-21.75 29.25267,0 0,15.745461 -29.25267,0 z m 35.25,0 29.25267,0 0,15.745461 -29.25267,0 z m -35.25,-21.75 29.25267,0 0,15.745461 -29.25267,0 z m 35.25,0 29.25267,0 0,15.745461 -29.25267,0 z M 103.25,-60.749999 l 0,5.96875 78.28125,0 0,126.78125 -78.28125,0 0,6 77.78125,0 c 3.60618,0 6.53125,-2.92507 6.53125,-6.53125 l 0,-125.6875 c 0,-3.606183 -2.92507,-6.53125 -6.53125,-6.53125 l -77.78125,0 z" style="fill:#1f7144;fill-opacity:1;stroke:none"/></g><path style="fill:url(#radialGradient4564);stroke:none;stroke-width:1px;stroke-linecap:butt;stroke-linejoin:miter;stroke-opacity:1;opacity:1;fill-opacity:1" id="path3945" d="M 108.84375 9.0625 L 4.46875 27.625 L 4.46875 163.5625 L 108.78125 182.40625 L 108.84375 9.0625 z M 75.46875 65 L 60.53125 95.71875 L 75.875 126.625 L 62 125.8125 L 52.875 103.1875 L 43.9375 124.78125 L 31.71875 124.09375 L 46.0625 95.71875 L 32.4375 67.03125 L 45.65625 66.40625 L 53.34375 87.3125 L 62.59375 65.59375 L 75.46875 65 z"/></svg>